<svg version="1.1" id="Layer_1" xmlns="http://www.w3.org/2000/svg" xmlns:xlink="http://www.w3.org/1999/xlink" x="0px" y="0px" viewBox="0 0 46.6 61.4">

<path  d="M23.7,61.4c-0.2,0-0.5,0-0.7,0c-0.2-0.2-0.4-0.4-0.6-0.6c-4.4-4.4-8.5-9-12.2-14.1c-3.1-4.3-5.9-8.8-7.9-13.8
	C0.2,28-0.7,23,0.7,17.8C3,8.9,8.7,3.2,17.7,0.7c1.3-0.4,2.7-0.5,4-0.7c1.1,0,2.1,0,3.2,0c0.4,0,0.7,0.1,1.1,0.1
	c7.4,1,13.1,4.5,17.1,10.7c2.9,4.6,4,9.6,3.3,15c-0.5,3.6-1.7,7-3.3,10.3c-2.5,5-5.6,9.6-9.1,14C30.7,54.1,27.4,57.9,23.7,61.4z
	 M34,23c0-5.8-4.8-10.6-10.7-10.5c-5.9,0-10.7,4.8-10.7,10.6c0,5.8,4.9,10.5,10.8,10.5C29.2,33.5,34,28.8,34,23z"/>
</svg>
